<?xml version="1.0" encoding="UTF-8"?>
<svg xmlns="http://www.w3.org/2000/svg" xmlns:xlink="http://www.w3.org/1999/xlink" width="px" height="px" viewBox="0 0 8 8" version="1.1">
<g id="surface1">
<path style=" stroke:none;fill-rule:evenodd;fill:rgb(0%,0%,0%);fill-opacity:1;" d="M 1.25 6 C 1.25 5.863281 1.363281 5.75 1.5 5.75 L 6.5 5.75 C 6.636719 5.75 6.75 5.863281 6.75 6 C 6.75 6.136719 6.636719 6.25 6.5 6.25 L 1.5 6.25 C 1.363281 6.25 1.25 6.136719 1.25 6 Z M 1.25 4 C 1.25 3.863281 1.363281 3.75 1.5 3.75 L 6.5 3.75 C 6.636719 3.75 6.75 3.863281 6.75 4 C 6.75 4.136719 6.636719 4.25 6.5 4.25 L 1.5 4.25 C 1.363281 4.25 1.25 4.136719 1.25 4 Z M 1.25 2 C 1.25 1.863281 1.363281 1.75 1.5 1.75 L 6.5 1.75 C 6.636719 1.75 6.75 1.863281 6.75 2 C 6.75 2.136719 6.636719 2.25 6.5 2.25 L 1.5 2.25 C 1.363281 2.25 1.25 2.136719 1.25 2 Z M 1.25 2 "/>
</g>
</svg>
